<?xml version="1.0" encoding="UTF-8" standalone="no"?>
<!-- Created with Inkscape (http://www.inkscape.org/) -->

<svg

   xmlns="http://www.w3.org/2000/svg"

   width="40"
   height="40">
  <defs
     id="defs11568">
    <linearGradient
       id="linearGradient4397">
      <stop
         id="stop4399"
         style="stop-color:#ffffff;stop-opacity:0.09411765"
         offset="0" />
      <stop
         id="stop4401"
         style="stop-color:#ffffff;stop-opacity:0"
         offset="1" />
    </linearGradient>
    <linearGradient
       x1="418"
       y1="993.36218"
       x2="418.00003"
       y2="1019.3734"
       id="linearGradient11670"
       xlink:href="#linearGradient4397"
       gradientUnits="userSpaceOnUse" />
    <linearGradient
       x1="418"
       y1="993.36218"
       x2="418.00003"
       y2="1019.3734"
       id="linearGradient11720"
       xlink:href="#linearGradient4397"
       gradientUnits="userSpaceOnUse" />
  </defs>

  <script src="svg.js">
    // <![CDATA[
      color = String( color );
    // ]]>
  </script>
  <g
     transform="translate(0,-1012.3622)"
     id="layer1">
    <path
       d="m 19.999993,1012.3622 c -11.0331147,0 -19.99866702,8.9661 -19.99866702,20 0,3.646 0.98386441,7.059 2.68732082,10 l 0.4999667,0.875 0.8749417,-0.5 1.7498833,-1 0.8749417,-0.5 -0.4999667,-0.875 c -1.3717385,-2.3641 -2.1873542,-5.0797 -2.1873542,-8 0,-8.8484 7.1511237,-16 15.9989337,-16 8.84781,0 15.998933,7.1516 15.998933,16 0,2.9203 -0.815615,5.6359 -2.187354,8 l -0.499967,0.875 0.874942,0.5 1.749883,1 0.874942,0.5 0.499967,-0.875 c 1.703456,-2.941 2.687321,-6.354 2.687321,-10 0,-11.0339 -8.965553,-20 -19.998667,-20 z m 0,1 c 10.49271,0 18.998733,8.5066 18.998733,19 0,3.4647 -0.942377,6.7032 -2.562329,9.5 l -1.749883,-1 c 1.453503,-2.505 2.312346,-5.3953 2.312346,-8.5 0,-9.3889 -7.610653,-17 -16.998867,-17 -9.388214,0 -16.998867,7.6112 -16.998867,17 0,3.1047 0.8588427,5.995 2.3123458,8.5 l -1.7498833,1 c -1.619952,-2.7968 -2.5623292,-6.0353 -2.5623292,-9.5 0,-10.4934 8.506023,-19 18.9987337,-19 z"
       id="path15773"
       style="font-size:medium;font-style:normal;font-variant:normal;font-weight:normal;font-stretch:normal;text-indent:0;text-align:start;text-decoration:none;line-height:normal;letter-spacing:normal;word-spacing:normal;text-transform:none;direction:ltr;block-progression:tb;writing-mode:lr-tb;text-anchor:start;baseline-shift:baseline;color:#000000;fill:#000000;fill-opacity:0.50196078;stroke:none;stroke-width:2;marker:none;visibility:visible;display:inline;overflow:visible;enable-background:accumulate;font-family:Sans;-inkscape-font-specification:Sans" />
    <path
       d="m 19.999993,1013.3622 c -10.4927107,0 -18.9987337,8.5066 -18.9987337,19 0,3.4647 0.9423772,6.7032 2.5623292,9.5 l 1.7498833,-1 c -1.4535031,-2.505 -2.3123458,-5.3953 -2.3123458,-8.5 0,-9.3888 7.610653,-17 16.998867,-17 9.388214,0 16.998867,7.6111 16.998867,17 0,3.1047 -0.858843,5.995 -2.312346,8.5 l 1.749883,1 c 1.619952,-2.7968 2.562329,-6.0353 2.562329,-9.5 0,-10.4934 -8.506023,-19 -18.998733,-19 z"
       id="path15775"
       style="fill:#000000;fill-opacity:0.37647059;fill-rule:nonzero;stroke:none" />
    <path
       d="m 0.00132598,1032.9247 c -0.0029998,0.1454 0,0.2914 0,0.4375 0,3.646 0.98386441,7.059 2.68732082,10 l 0.4999667,0.875 0.8749417,-0.5 1.7498833,-1 0.8749417,-0.5 -0.4374708,-0.75 -0.4374709,0.25 -1.7498833,1 -0.8749417,0.5 -0.4999667,-0.875 c -1.6143723,-2.7872 -2.59047728,-6.0059 -2.68732082,-9.4375 z m 39.99733402,0 c -0.09689,3.4316 -1.072949,6.6503 -2.687321,9.4375 l -0.499967,0.875 -0.874942,-0.5 -1.749883,-1 -0.437471,-0.25 -0.437471,0.75 0.874942,0.5 1.749883,1 0.874942,0.5 0.499967,-0.875 c 1.703456,-2.941 2.687321,-6.354 2.687321,-10 0,-0.1461 0.003,-0.2921 0,-0.4375 z"
       id="path15777"
       style="font-size:medium;font-style:normal;font-variant:normal;font-weight:normal;font-stretch:normal;text-indent:0;text-align:start;text-decoration:none;line-height:normal;letter-spacing:normal;word-spacing:normal;text-transform:none;direction:ltr;block-progression:tb;writing-mode:lr-tb;text-anchor:start;baseline-shift:baseline;color:#000000;fill:#ffffff;fill-opacity:0.1254902;stroke:none;stroke-width:2;marker:none;visibility:visible;display:inline;overflow:visible;enable-background:accumulate;font-family:Sans;-inkscape-font-specification:Sans" />
    <path
       d="m 19.999993,1016.3622 c -8.835921,0 -15.9989337,7.1635 -15.9989337,16 0,8.8365 7.1630127,16 15.9989337,16 8.835921,0 15.998933,-7.1635 15.998933,-16 0,-8.8365 -7.163012,-16 -15.998933,-16 z m 0,2 c 7.731494,0 13.999067,6.268 13.999067,14 0,7.732 -6.267573,14 -13.999067,14 -7.731495,0 -13.999067,-6.268 -13.999067,-14 0,-7.732 6.267572,-14 13.999067,-14 z"
       id="path15779"
       style="fill:#000000;fill-opacity:0.50196078;fill-rule:nonzero;stroke:none" />
    <path
       d="m 431,1006.3622 a 13,13 0 1 1 -26,0 13,13 0 1 1 26,0 z"
       transform="matrix(1.0768539,0,0,1.0769257,-430.12499,-51.42806)"
       id="path15781"
       style="fill:url(#linearGradient11720);fill-opacity:1;fill-rule:nonzero;stroke:none" />
    <path
       d="m 19.999993,1018.3622 c -7.731495,0 -13.999067,6.268 -13.999067,14 0,0.172 0.025098,0.3295 0.031198,0.5 0.2645724,-7.4992 6.404543,-13.5 13.967819,-13.5 7.563276,0 13.703246,6.0008 13.967819,13.5 0.006,-0.1705 0.0312,-0.328 0.0312,-0.5 0,-7.732 -6.267573,-14 -13.999067,-14 z"
       id="path15783"
       style="fill:#ffffff;fill-opacity:0.0627451;fill-rule:nonzero;stroke:none" />
    <path
       d="m 6.0321739,1031.8622 c -0.006,0.1668 -0.031198,0.3318 -0.031198,0.5 0,7.732 6.2675721,14 13.9990671,14 7.731494,0 13.999067,-6.268 13.999067,-14 0,-0.1682 -0.0254,-0.3332 -0.0312,-0.5 -0.270262,7.4941 -6.408273,13.5 -13.967819,13.5 -7.559546,0 -13.6975572,-6.0059 -13.9678192,-13.5 z"
       id="path15785"
       style="fill:#000000;fill-opacity:0.25098039;fill-rule:nonzero;stroke:none" />
    <path
       d="m 6.000926,1032.3622 0,6 c 0,7.732 6.267572,14 13.999067,14 7.731494,0 13.999067,-6.268 13.999067,-14 l 0,-6 c 0,2.987 -0.968516,5.7269 -2.56233,8 -0.421652,0.6013 -0.866222,1.1606 -1.374908,1.6875 -0.261133,0.2705 -0.530415,0.5325 -0.812446,0.7813 -0.252793,0.223 -0.512676,0.4517 -0.781198,0.6562 -0.077,0.059 -0.171778,0.099 -0.249983,0.1562 -0.165099,0.1216 -0.329448,0.2607 -0.499967,0.375 -0.158019,0.105 -0.306279,0.214 -0.468719,0.3126 -0.382564,0.2321 -0.781987,0.4296 -1.18742,0.625 -0.204917,0.1 -0.414563,0.1916 -0.624959,0.2812 -0.418682,0.1784 -0.842524,0.3315 -1.281164,0.4688 -0.434681,0.136 -0.891631,0.2504 -1.343661,0.3437 -0.456189,0.094 -0.903339,0.1705 -1.374908,0.2187 -0.470609,0.048 -0.954186,0.094 -1.437404,0.094 -0.398854,0 -0.797017,-0.03 -1.187421,-0.062 -0.08619,-0.01 -0.164269,-0.023 -0.249983,-0.031 -0.471569,-0.048 -0.918719,-0.1246 -1.374909,-0.2187 -0.45203,-0.093 -0.908979,-0.2077 -1.34366,-0.3437 -0.438641,-0.1373 -0.862483,-0.2904 -1.281165,-0.4688 -0.210396,-0.09 -0.420042,-0.1817 -0.624958,-0.2812 -0.405433,-0.1954 -0.804856,-0.3929 -1.187421,-0.625 -0.161209,-0.099 -0.311909,-0.2074 -0.468719,-0.3126 -0.172468,-0.1144 -0.332977,-0.2531 -0.499966,-0.375 -0.07799,-0.057 -0.173219,-0.097 -0.249984,-0.1562 -0.268522,-0.2045 -0.528404,-0.4332 -0.781198,-0.6562 -0.282031,-0.2488 -0.551313,-0.5108 -0.8124455,-0.7813 -0.508686,-0.5269 -0.9532564,-1.0862 -1.3749083,-1.6875 -1.5938137,-2.2731 -2.5623292,-5.013 -2.5623292,-8 z"
       id="path15787"
       style="fill:#000000;fill-opacity:0.25098039;fill-rule:nonzero;stroke:none" />
    <rect
       width="1.9998667"
       height="8.9871826"
       x="19.000059"
       y="1019.3622"
       id="rect15789"
       style="fill:#ffffff;fill-opacity:0.50196078;fill-rule:nonzero;stroke:none" />
    <path
       d="m 18.000126,1019.3622 0,10 3.999733,0 0,-10 -0.999933,0 0,9 -1.999867,0 0,-9 z"
       id="path15791"
       style="fill:#000000;fill-opacity:0.25098039;fill-rule:nonzero;stroke:none" />
    <path
       d="m 20,1013.3622 c -10.49341,0 -19,8.5066 -19,19 0,3.4647 0.94244,6.7032 2.5625,9.5 l 1.75,-1 C 3.8589,1038.3572 3,1035.4669 3,1032.3622 c 0,-9.3888 7.61116,-17 17,-17 z"
       id="path15793"
       style="fill:#df2037; prop( 'fill', 'color' );" />
  </g>
</svg>
